<mxfile host="app.diagrams.net" agent="Mozilla/5.0 (Windows NT 10.0; Win64; x64) AppleWebKit/537.36 (KHTML, like Gecko) Chrome/129.0.0.0 Safari/537.36" version="24.7.17">
  <diagram name="Page-1" id="bFzanM1ANvc9z1kjilLQ">
    <mxGraphModel dx="2836" dy="1236" grid="0" gridSize="10" guides="1" tooltips="0" connect="1" arrows="1" fold="1" page="0" pageScale="1" pageWidth="690" pageHeight="980" background="#FFFFFF" math="0" shadow="1">
      <root>
        <mxCell id="0" />
        <mxCell id="1" parent="0" />
        <mxCell id="3T4xNw7SepY3bX3JHBJp-15" style="edgeStyle=orthogonalEdgeStyle;rounded=0;orthogonalLoop=1;jettySize=auto;html=1;exitX=0.5;exitY=1;exitDx=0;exitDy=0;entryX=0.5;entryY=0;entryDx=0;entryDy=0;fontSize=20;" parent="1" source="3T4xNw7SepY3bX3JHBJp-1" target="3T4xNw7SepY3bX3JHBJp-9" edge="1">
          <mxGeometry relative="1" as="geometry" />
        </mxCell>
        <mxCell id="3T4xNw7SepY3bX3JHBJp-47" style="edgeStyle=orthogonalEdgeStyle;rounded=0;orthogonalLoop=1;jettySize=auto;html=1;entryX=0.5;entryY=1;entryDx=0;entryDy=0;fontSize=20;" parent="1" edge="1">
          <mxGeometry relative="1" as="geometry">
            <mxPoint x="305.5" y="1029.92" as="targetPoint" />
            <mxPoint x="-339" y="379.9969230769231" as="sourcePoint" />
            <Array as="points">
              <mxPoint x="-339" y="360" />
              <mxPoint x="-480" y="360" />
              <mxPoint x="-480" y="1150" />
              <mxPoint x="306" y="1150" />
            </Array>
          </mxGeometry>
        </mxCell>
        <mxCell id="3T4xNw7SepY3bX3JHBJp-1" value="Chatbot Generation&lt;div style=&quot;font-size: 20px;&quot;&gt;&lt;b&gt;(Cognitive Layer)&lt;/b&gt;&lt;/div&gt;&lt;div style=&quot;font-size: 20px;&quot;&gt;&lt;br style=&quot;font-size: 20px;&quot;&gt;&lt;/div&gt;" style="rounded=0;whiteSpace=wrap;html=1;fontSize=20;" parent="1" vertex="1">
          <mxGeometry x="-337.25" y="330" width="179" height="90" as="geometry" />
        </mxCell>
        <mxCell id="3T4xNw7SepY3bX3JHBJp-40" value="" style="edgeStyle=orthogonalEdgeStyle;rounded=0;orthogonalLoop=1;jettySize=auto;html=1;fontSize=20;" parent="1" source="3T4xNw7SepY3bX3JHBJp-2" target="3T4xNw7SepY3bX3JHBJp-39" edge="1">
          <mxGeometry relative="1" as="geometry" />
        </mxCell>
        <mxCell id="3T4xNw7SepY3bX3JHBJp-45" style="edgeStyle=orthogonalEdgeStyle;rounded=0;orthogonalLoop=1;jettySize=auto;html=1;fontSize=20;exitX=1;exitY=0.5;exitDx=0;exitDy=0;" parent="1" source="3T4xNw7SepY3bX3JHBJp-2" edge="1">
          <mxGeometry relative="1" as="geometry">
            <mxPoint x="390" y="1040" as="targetPoint" />
            <mxPoint x="1161" y="380" as="sourcePoint" />
            <Array as="points">
              <mxPoint x="1045" y="360" />
              <mxPoint x="1161" y="360" />
              <mxPoint x="1161" y="1160" />
              <mxPoint x="390" y="1160" />
            </Array>
          </mxGeometry>
        </mxCell>
        <mxCell id="3T4xNw7SepY3bX3JHBJp-2" value="Ready Made Templates Selection" style="rounded=0;whiteSpace=wrap;html=1;fontSize=20;" parent="1" vertex="1">
          <mxGeometry x="910" y="330" width="135" height="70" as="geometry" />
        </mxCell>
        <mxCell id="3T4xNw7SepY3bX3JHBJp-35" value="" style="edgeStyle=orthogonalEdgeStyle;rounded=0;orthogonalLoop=1;jettySize=auto;html=1;fontSize=20;" parent="1" source="3T4xNw7SepY3bX3JHBJp-3" target="3T4xNw7SepY3bX3JHBJp-33" edge="1">
          <mxGeometry relative="1" as="geometry" />
        </mxCell>
        <mxCell id="3T4xNw7SepY3bX3JHBJp-44" style="edgeStyle=orthogonalEdgeStyle;rounded=0;orthogonalLoop=1;jettySize=auto;html=1;entryX=0.75;entryY=0;entryDx=0;entryDy=0;fontSize=20;" parent="1" source="3T4xNw7SepY3bX3JHBJp-3" target="3T4xNw7SepY3bX3JHBJp-42" edge="1">
          <mxGeometry relative="1" as="geometry" />
        </mxCell>
        <mxCell id="3T4xNw7SepY3bX3JHBJp-3" value="Manual Generation&amp;nbsp;" style="rounded=0;whiteSpace=wrap;html=1;fontSize=20;" parent="1" vertex="1">
          <mxGeometry x="600" y="330" width="120" height="60" as="geometry" />
        </mxCell>
        <mxCell id="3T4xNw7SepY3bX3JHBJp-28" value="" style="edgeStyle=orthogonalEdgeStyle;rounded=0;orthogonalLoop=1;jettySize=auto;html=1;fontSize=20;" parent="1" source="3T4xNw7SepY3bX3JHBJp-4" target="3T4xNw7SepY3bX3JHBJp-22" edge="1">
          <mxGeometry relative="1" as="geometry" />
        </mxCell>
        <mxCell id="3T4xNw7SepY3bX3JHBJp-43" style="edgeStyle=orthogonalEdgeStyle;rounded=0;orthogonalLoop=1;jettySize=auto;html=1;fontSize=20;" parent="1" source="3T4xNw7SepY3bX3JHBJp-4" target="3T4xNw7SepY3bX3JHBJp-42" edge="1">
          <mxGeometry relative="1" as="geometry">
            <Array as="points">
              <mxPoint x="340" y="390" />
            </Array>
          </mxGeometry>
        </mxCell>
        <mxCell id="3T4xNw7SepY3bX3JHBJp-4" value="Questionnaire Generation&amp;nbsp;&lt;div style=&quot;font-size: 20px;&quot;&gt;&lt;br style=&quot;font-size: 20px;&quot;&gt;&lt;/div&gt;" style="rounded=0;whiteSpace=wrap;html=1;fontSize=20;" parent="1" vertex="1">
          <mxGeometry x="90" y="330" width="167.5" height="70" as="geometry" />
        </mxCell>
        <mxCell id="3T4xNw7SepY3bX3JHBJp-30" style="edgeStyle=orthogonalEdgeStyle;rounded=0;orthogonalLoop=1;jettySize=auto;html=1;entryX=0.5;entryY=0;entryDx=0;entryDy=0;fontSize=20;" parent="1" source="3T4xNw7SepY3bX3JHBJp-6" target="3T4xNw7SepY3bX3JHBJp-4" edge="1">
          <mxGeometry relative="1" as="geometry" />
        </mxCell>
        <mxCell id="3T4xNw7SepY3bX3JHBJp-31" style="edgeStyle=orthogonalEdgeStyle;rounded=0;orthogonalLoop=1;jettySize=auto;html=1;entryX=0.5;entryY=0;entryDx=0;entryDy=0;fontSize=20;" parent="1" source="3T4xNw7SepY3bX3JHBJp-6" target="3T4xNw7SepY3bX3JHBJp-3" edge="1">
          <mxGeometry relative="1" as="geometry" />
        </mxCell>
        <mxCell id="3T4xNw7SepY3bX3JHBJp-38" style="edgeStyle=orthogonalEdgeStyle;rounded=0;orthogonalLoop=1;jettySize=auto;html=1;entryX=0.5;entryY=0;entryDx=0;entryDy=0;fontSize=20;" parent="1" source="3T4xNw7SepY3bX3JHBJp-6" target="3T4xNw7SepY3bX3JHBJp-2" edge="1">
          <mxGeometry relative="1" as="geometry">
            <mxPoint x="1240" y="350" as="targetPoint" />
          </mxGeometry>
        </mxCell>
        <mxCell id="3T4xNw7SepY3bX3JHBJp-6" value="FlexiCraft&lt;div style=&quot;font-size: 20px;&quot;&gt;&lt;b&gt;(&lt;span style=&quot;background-color: initial; font-size: 20px;&quot;&gt;Application Layer)&lt;/span&gt;&lt;/b&gt;&lt;/div&gt;" style="rounded=0;whiteSpace=wrap;html=1;fontSize=20;" parent="1" vertex="1">
          <mxGeometry x="345" y="260" width="135" height="80" as="geometry" />
        </mxCell>
        <mxCell id="3T4xNw7SepY3bX3JHBJp-23" value="" style="edgeStyle=orthogonalEdgeStyle;rounded=0;orthogonalLoop=1;jettySize=auto;html=1;fontSize=20;" parent="1" source="3T4xNw7SepY3bX3JHBJp-7" target="3T4xNw7SepY3bX3JHBJp-8" edge="1">
          <mxGeometry relative="1" as="geometry" />
        </mxCell>
        <mxCell id="3T4xNw7SepY3bX3JHBJp-7" value="Landing Page&lt;div style=&quot;font-size: 20px;&quot;&gt;&lt;b&gt;(UI Layer)&lt;/b&gt;&lt;/div&gt;" style="rounded=0;whiteSpace=wrap;html=1;fontSize=20;" parent="1" vertex="1">
          <mxGeometry x="340" y="-38" width="145" height="100" as="geometry" />
        </mxCell>
        <mxCell id="3T4xNw7SepY3bX3JHBJp-24" value="" style="edgeStyle=orthogonalEdgeStyle;rounded=0;orthogonalLoop=1;jettySize=auto;html=1;fontSize=20;" parent="1" source="3T4xNw7SepY3bX3JHBJp-8" target="3T4xNw7SepY3bX3JHBJp-6" edge="1">
          <mxGeometry relative="1" as="geometry" />
        </mxCell>
        <mxCell id="3T4xNw7SepY3bX3JHBJp-8" value="Sign up/ Sign in&lt;div style=&quot;font-size: 20px;&quot;&gt;JWT token auth, store user past tempates&lt;/div&gt;&lt;div style=&quot;font-size: 20px;&quot;&gt;&lt;b&gt;(Dataaccess, Database and Security Layer)&lt;/b&gt;&lt;/div&gt;" style="rounded=0;whiteSpace=wrap;html=1;fontSize=20;" parent="1" vertex="1">
          <mxGeometry x="267.5" y="96" width="290" height="130" as="geometry" />
        </mxCell>
        <mxCell id="3T4xNw7SepY3bX3JHBJp-16" style="edgeStyle=orthogonalEdgeStyle;rounded=0;orthogonalLoop=1;jettySize=auto;html=1;entryX=0.5;entryY=0;entryDx=0;entryDy=0;fontSize=20;" parent="1" source="3T4xNw7SepY3bX3JHBJp-9" target="3T4xNw7SepY3bX3JHBJp-10" edge="1">
          <mxGeometry relative="1" as="geometry" />
        </mxCell>
        <mxCell id="3T4xNw7SepY3bX3JHBJp-20" style="edgeStyle=orthogonalEdgeStyle;rounded=0;orthogonalLoop=1;jettySize=auto;html=1;entryX=0;entryY=0.5;entryDx=0;entryDy=0;fontSize=20;" parent="1" source="3T4xNw7SepY3bX3JHBJp-9" target="3T4xNw7SepY3bX3JHBJp-14" edge="1">
          <mxGeometry relative="1" as="geometry" />
        </mxCell>
        <mxCell id="3T4xNw7SepY3bX3JHBJp-9" value="User gives text details for web template" style="ellipse;whiteSpace=wrap;html=1;fontSize=20;" parent="1" vertex="1">
          <mxGeometry x="-329.75" y="490" width="164" height="110" as="geometry" />
        </mxCell>
        <mxCell id="3T4xNw7SepY3bX3JHBJp-17" style="edgeStyle=orthogonalEdgeStyle;rounded=0;orthogonalLoop=1;jettySize=auto;html=1;fontSize=20;" parent="1" source="3T4xNw7SepY3bX3JHBJp-10" target="3T4xNw7SepY3bX3JHBJp-11" edge="1">
          <mxGeometry relative="1" as="geometry" />
        </mxCell>
        <mxCell id="3T4xNw7SepY3bX3JHBJp-10" value="Trained AI-Model based on domain specific language" style="ellipse;whiteSpace=wrap;html=1;fontSize=20;" parent="1" vertex="1">
          <mxGeometry x="-342.75" y="740" width="190" height="120" as="geometry" />
        </mxCell>
        <mxCell id="3T4xNw7SepY3bX3JHBJp-11" value="Get user&#39;s color and images for web components based on existing similar websites" style="ellipse;whiteSpace=wrap;html=1;fontSize=20;" parent="1" vertex="1">
          <mxGeometry x="-367.75" y="900" width="240" height="230" as="geometry" />
        </mxCell>
        <mxCell id="3T4xNw7SepY3bX3JHBJp-14" value="Includes personalized&amp;nbsp; images and colors based on input for web components&lt;div style=&quot;font-size: 20px;&quot;&gt;&lt;b&gt;(GEN AI)&lt;/b&gt;&lt;/div&gt;" style="ellipse;whiteSpace=wrap;html=1;fontSize=20;" parent="1" vertex="1">
          <mxGeometry x="-221" y="580" width="251" height="180" as="geometry" />
        </mxCell>
        <mxCell id="3T4xNw7SepY3bX3JHBJp-29" value="" style="edgeStyle=orthogonalEdgeStyle;rounded=0;orthogonalLoop=1;jettySize=auto;html=1;fontSize=20;" parent="1" source="3T4xNw7SepY3bX3JHBJp-22" target="3T4xNw7SepY3bX3JHBJp-27" edge="1">
          <mxGeometry relative="1" as="geometry" />
        </mxCell>
        <mxCell id="3T4xNw7SepY3bX3JHBJp-22" value="Make the process interactive for the user by asking questions about web&amp;nbsp; template for example style, theme and domain" style="ellipse;whiteSpace=wrap;html=1;fontSize=20;" parent="1" vertex="1">
          <mxGeometry x="49.99999999999999" y="490" width="248.75" height="215" as="geometry" />
        </mxCell>
        <mxCell id="3T4xNw7SepY3bX3JHBJp-26" style="edgeStyle=orthogonalEdgeStyle;rounded=0;orthogonalLoop=1;jettySize=auto;html=1;entryX=0.406;entryY=-0.029;entryDx=0;entryDy=0;entryPerimeter=0;fontSize=20;" parent="1" source="3T4xNw7SepY3bX3JHBJp-6" target="3T4xNw7SepY3bX3JHBJp-1" edge="1">
          <mxGeometry relative="1" as="geometry">
            <Array as="points">
              <mxPoint x="-265" y="300" />
            </Array>
          </mxGeometry>
        </mxCell>
        <mxCell id="3T4xNw7SepY3bX3JHBJp-27" value="Generates template based on user preferences" style="ellipse;whiteSpace=wrap;html=1;fontSize=20;" parent="1" vertex="1">
          <mxGeometry x="96.87" y="750" width="155" height="120" as="geometry" />
        </mxCell>
        <mxCell id="3T4xNw7SepY3bX3JHBJp-32" value="Select themes, colors , fonts, animations, images and videos for integration into website" style="ellipse;whiteSpace=wrap;html=1;fontSize=20;" parent="1" vertex="1">
          <mxGeometry x="541.25" y="720" width="237.5" height="220" as="geometry" />
        </mxCell>
        <mxCell id="3T4xNw7SepY3bX3JHBJp-34" value="" style="edgeStyle=orthogonalEdgeStyle;rounded=0;orthogonalLoop=1;jettySize=auto;html=1;fontSize=20;" parent="1" source="3T4xNw7SepY3bX3JHBJp-33" target="3T4xNw7SepY3bX3JHBJp-32" edge="1">
          <mxGeometry relative="1" as="geometry" />
        </mxCell>
        <mxCell id="3T4xNw7SepY3bX3JHBJp-33" value="Select a website structure layout for example sequential, hierarchical, matrix and database-driven" style="ellipse;whiteSpace=wrap;html=1;fontSize=20;" parent="1" vertex="1">
          <mxGeometry x="550" y="470" width="220" height="175" as="geometry" />
        </mxCell>
        <mxCell id="3T4xNw7SepY3bX3JHBJp-39" value="Select from pre made templates for most popular websites for example ecommerce, blogs, portfolio, business, educational, entertainment, forums, vids streaming and more" style="ellipse;whiteSpace=wrap;html=1;fontSize=20;" parent="1" vertex="1">
          <mxGeometry x="806.25" y="510" width="342.5" height="270" as="geometry" />
        </mxCell>
        <mxCell id="3T4xNw7SepY3bX3JHBJp-49" style="edgeStyle=orthogonalEdgeStyle;rounded=0;orthogonalLoop=1;jettySize=auto;html=1;fontSize=20;" parent="1" source="3T4xNw7SepY3bX3JHBJp-42" target="3T4xNw7SepY3bX3JHBJp-48" edge="1">
          <mxGeometry relative="1" as="geometry" />
        </mxCell>
        <mxCell id="3T4xNw7SepY3bX3JHBJp-42" value="&lt;font style=&quot;font-size: 20px;&quot;&gt;All 4 options will out an editable template, leading to the editor section where we can change colors, images, fonts, component sizes and more&lt;/font&gt;&lt;div style=&quot;font-size: 20px;&quot;&gt;&lt;font style=&quot;font-size: 20px;&quot;&gt;&lt;b&gt;(Integration Layer)&amp;nbsp;&lt;/b&gt;&lt;/font&gt;&lt;/div&gt;" style="rounded=0;whiteSpace=wrap;html=1;fontSize=20;" parent="1" vertex="1">
          <mxGeometry x="230" y="860" width="280" height="180" as="geometry" />
        </mxCell>
        <mxCell id="3T4xNw7SepY3bX3JHBJp-48" value="&lt;font style=&quot;font-size: 20px;&quot;&gt;Web components code generation, export to code&lt;/font&gt;&lt;div style=&quot;font-size: 20px;&quot;&gt;&lt;font style=&quot;font-size: 20px;&quot;&gt;&lt;b&gt;(Infrastructure Layer)&lt;/b&gt;&lt;/font&gt;&lt;/div&gt;" style="rounded=0;whiteSpace=wrap;html=1;fontSize=20;" parent="1" vertex="1">
          <mxGeometry x="263" y="1174" width="214" height="190" as="geometry" />
        </mxCell>
      </root>
    </mxGraphModel>
  </diagram>
</mxfile>
